<?xml version="1.0" encoding="UTF-8" standalone="no"?>
<!-- Created with Inkscape (http://www.inkscape.org/) -->

<svg
   version="1.1"
   id="svg2"
   width="64"
   height="64"
   viewBox="0 0 64.000001 64"
   sodipodi:docname="defaultIcon.svg"
   inkscape:version="1.2.2 (b0a8486541, 2022-12-01)"
   inkscape:export-filename="../ico/defaultIcon.png"
   inkscape:export-xdpi="192"
   inkscape:export-ydpi="192"
   xmlns:inkscape="http://www.inkscape.org/namespaces/inkscape"
   xmlns:sodipodi="http://sodipodi.sourceforge.net/DTD/sodipodi-0.dtd"
   xmlns="http://www.w3.org/2000/svg"
   xmlns:svg="http://www.w3.org/2000/svg">
  <defs
     id="defs6">
    <clipPath
       clipPathUnits="userSpaceOnUse"
       id="clipPath20">
      <path
         d="M 0,1 V 442 H 1630 V 1 Z"
         id="path18" />
    </clipPath>
  </defs>
  <sodipodi:namedview
     id="namedview4"
     pagecolor="#ffffff"
     bordercolor="#000000"
     borderopacity="0.25"
     inkscape:showpageshadow="2"
     inkscape:pageopacity="0.0"
     inkscape:pagecheckerboard="0"
     inkscape:deskcolor="#d1d1d1"
     showgrid="false"
     inkscape:zoom="4.2231195"
     inkscape:cx="-11.010818"
     inkscape:cy="38.005081"
     inkscape:window-width="1920"
     inkscape:window-height="1011"
     inkscape:window-x="0"
     inkscape:window-y="0"
     inkscape:window-maximized="1"
     inkscape:current-layer="g10">
    <inkscape:page
       x="0"
       y="0"
       id="page8"
       width="64"
       height="64"
       inkscape:export-filename="../tex/cgvCube.png"
       inkscape:export-xdpi="768"
       inkscape:export-ydpi="768" />
  </sodipodi:namedview>
  <g
     id="g10"
     inkscape:groupmode="layer"
     inkscape:label="Page 1"
     transform="matrix(1.3333333,0,0,-1.3333333,0,60)">
    <rect
       style="fill:#ffffff;fill-opacity:0.98876399;stroke-width:0.354331;stroke-linecap:round;stroke-linejoin:round"
       id="rect908"
       width="48"
       height="48"
       x="0"
       y="-45"
       transform="scale(1,-1)"
       ry="11.721193" />
    <path
       d="m 33.13869,39.887611 -6.447997,-0.04649 c 3.571244,-2.961841 5.263879,-4.518358 7.218037,-0.247903 -0.255075,0.117412 -0.510424,0.216301 -0.77004,0.294395 z m -13.532005,-0.06738 -4.629321,-1.181213 1.404597,-2.816821 5.267874,3.998034 z m -4.107183,-0.02524 -1.093312,-0.02089 0.273147,-0.521412 z m 0.521411,0 c -0.301568,-0.233374 -0.60695,-0.47846 -0.908065,-0.701936 0.921505,0.230559 1.968596,0.461116 2.997345,0.701936 z m 8.399615,-0.42879 c -2.171187,-0.138755 -4.398855,-1.780719 -6.991385,-3.724889 4.032723,0 8.04801,1.313155 12.099257,0.748427 -1.773635,2.26381 -3.419777,3.082794 -5.107872,2.97646 z m 10.556271,-0.794559 c -0.614036,-0.978714 -1.511114,-1.954886 -1.997021,-2.93033 1.805055,-0.36141 3.259051,-1.053176 4.607709,-1.702626 z M 12.409198,38.31938 12.115139,37.823485 C 10.423511,33.729741 8.3023216,27.355207 7.755357,22.974876 c 1.5685391,5.401905 6.321387,9.917809 6.743456,10.715909 -0.128037,0.577802 -1.92964,3.526203 -2.089615,4.628595 z m -1.450073,-2.471938 -4.0653686,-6.99111 c -0.2415638,-1.678108 0.010997,-3.387815 0.5004989,-5.587425 0.5420066,4.348821 1.8015945,8.918211 3.5648697,12.578535 z m 22.020653,-0.794557 c 2.30558,-3.458825 4.618334,-8.051643 6.924006,-11.510468 0.655441,1.312066 0.932493,2.798661 1.088953,4.292339 l -2.817185,5.015341 c -1.833113,0.699121 -3.749314,1.114107 -5.195774,2.202788 z M 29.279409,34.87227 c -3.770293,0.04895 -7.754069,-0.451127 -11.282724,-0.954468 1.727051,-3.458825 3.823776,-7.59761 6.129446,-11.056434 1.727052,4.036263 4.820198,7.584079 6.742393,11.939255 -0.528585,0.03269 -1.053175,0.06066 -1.589115,0.07165 z m 3.132829,-0.954468 c -2.305672,-4.036991 -4.618426,-8.65469 -6.924006,-12.692043 4.611251,0 9.233127,-0.0035 13.822403,0.206131 -1.706165,4.401579 -4.01892,8.448921 -6.898397,12.485912 z M 14.591436,32.349571 C 13.916743,31.774947 9.0294829,25.369537 8.1423475,21.860679 8.6428464,18.065598 9.5363746,15.124733 12.228647,11.417917 c -2.110192,9.612789 1.255675,18.194016 2.362789,20.931654 z m 0.76895,-0.588426 c -1.826031,-3.458826 -4.9234,-13.80161 -0.840687,-22.2476247 1.153245,2.8805677 7.566098,9.8110197 6.655217,10.5310257 -0.624658,0.866205 -3.841937,8.754668 -5.81453,11.716599 z m -8.8997319,-3.65751 c 0,-0.0064 -0.01738,-0.0099 -0.020931,-0.02088 C 5.5462042,24.443038 5.7476768,20.800148 6.1456642,17.164977 l 0.3149899,-0.546565 c 0.010997,1.659673 0.1135084,3.341775 0.7736271,4.813478 -0.9644662,2.426535 -0.7736271,4.387776 -0.7736271,6.671745 z M 5.8257161,27.014682 4.8506072,25.337575 C 4.361105,23.482485 4.2940625,21.726284 4.5345548,19.956282 c 0,-0.01816 -0.00354,-0.0316 0,-0.04613 l 1.0435679,-1.795248 c -0.1954432,2.926789 -0.124505,5.768037 0.2475934,8.899777 z M 41.921325,26.173994 c -0.21957,-1.649049 -0.532036,-3.294555 -0.861573,-4.948235 1.018033,0 2.469123,0.01099 3.565249,0.160002 z M 4.6235907,24.925403 4.5565481,24.811894 C 4.4391443,24.227009 4.3075382,23.641397 4.1695575,23.067409 c 0.1489773,0.5956 0.2979638,1.223073 0.4540332,1.857994 z M 4.12309,24.109959 3.9216127,23.748457 c 0.020928,-0.34797 0.039019,-0.695578 0.087969,-1.04709 0,0.454033 0.039374,0.933582 0.1135083,1.408592 z M 3.6690568,23.290883 3.4420403,22.882254 c -0.017026,-0.315281 -0.052498,-0.638461 -0.067041,-0.953471 l 0.361453,-0.635646 c 0.018091,0.159639 0.029086,0.316099 0.046113,0.479278 -0.056045,0.506882 -0.081584,1.0144 -0.1135085,1.518468 z M 7.6673835,20.864349 C 8.5293382,14.809362 9.9265522,10.379 12.569173,6.1965642 l 1.269475,2.4971811 C 10.738491,11.43962 9.3944893,13.993193 7.6673835,20.864349 Z M 7.2552121,20.364185 C 6.8338058,18.838544 6.6596479,17.463005 6.7132057,16.185264 l 2.4042507,-4.153677 c -0.670053,2.752622 -1.0566895,5.753417 -1.8622443,8.332598 z M 38.609063,18.45543 c -4.22823,-0.354328 -8.517026,-0.134394 -13.827489,-0.134394 1.731047,-3.458824 3.593309,-7.59797 5.175251,-11.1702944 z m 5.221381,-0.02089 c -4.221781,0.0071 -3.693287,-2.806196 -3.430856,-6.062431 z M 23.011935,16.891559 C 22.100327,14.865753 18.624158,10.272938 17.474547,7.9708345 20.93328,6.2391243 24.969635,6.2426751 29.006989,6.2426751 26.55521,9.4783793 24.980623,13.717231 23.011935,16.891559 Z M 38.676078,16.551034 C 37.122468,14.174805 34.487258,10.04592 30.684006,6.2426751 39.357127,8.3177426 40.481222,10.84402 38.676078,16.551034 Z M 37.743494,7.6721713 30.549975,5.246635 32.567515,3.2034862 h 2.636299 z M 16.835993,6.2426751 c 1.408593,-1.1741026 2.483743,-2.3336666 3.657873,-3.0647236 l 5.561907,0.021993 c 0.471378,0.2160198 0.975445,0.4575746 1.52101,0.7725647 l 1.29109,0.9300601 c -3.88371,0.1915386 -8.573054,0.1879966 -12.03188,1.3401058 z M 15.520388,5.8141767 14.318289,3.3588563 14.999339,3.1779515 h 4.132428 z M 29.755416,4.653559 27.459644,3.2034862 h 3.931019"
       style="fill:#00305d;fill-opacity:1;fill-rule:nonzero;stroke:none;stroke-width:0.0908063"
       id="path22" />
  </g>
</svg>
