<?xml version="1.0" encoding="UTF-8" standalone="no"?>
<!-- Created with Inkscape (http://www.inkscape.org/) -->

<svg
   version="1.1"
   id="svg2"
   width="64"
   height="64"
   viewBox="0 0 64.000001 64"
   sodipodi:docname="cgvCube.svg"
   inkscape:version="1.2.2 (b0a8486541, 2022-12-01)"
   xmlns:inkscape="http://www.inkscape.org/namespaces/inkscape"
   xmlns:sodipodi="http://sodipodi.sourceforge.net/DTD/sodipodi-0.dtd"
   xmlns="http://www.w3.org/2000/svg"
   xmlns:svg="http://www.w3.org/2000/svg">
  <defs
     id="defs6">
    <clipPath
       clipPathUnits="userSpaceOnUse"
       id="clipPath20">
      <path
         d="M 0,1 V 442 H 1630 V 1 Z"
         id="path18" />
    </clipPath>
  </defs>
  <sodipodi:namedview
     id="namedview4"
     pagecolor="#ffffff"
     bordercolor="#000000"
     borderopacity="0.25"
     inkscape:showpageshadow="2"
     inkscape:pageopacity="0.0"
     inkscape:pagecheckerboard="0"
     inkscape:deskcolor="#d1d1d1"
     showgrid="false"
     inkscape:zoom="4.2231195"
     inkscape:cx="9.9452549"
     inkscape:cy="24.863137"
     inkscape:window-width="1920"
     inkscape:window-height="1017"
     inkscape:window-x="0"
     inkscape:window-y="0"
     inkscape:window-maximized="1"
     inkscape:current-layer="g16">
    <inkscape:page
       x="0"
       y="0"
       id="page8"
       width="64"
       height="64"
       inkscape:export-filename="../tex/cgvCube.png"
       inkscape:export-xdpi="768"
       inkscape:export-ydpi="768" />
  </sodipodi:namedview>
  <g
     id="g10"
     inkscape:groupmode="layer"
     inkscape:label="Page 1"
     transform="matrix(1.3333333,0,0,-1.3333333,0,60)">
    <g
       id="g12"
       transform="scale(0.1)">
      <g
         id="g14">
        <g
           id="g16"
           clip-path="url(#clipPath20)">
          <path
             d="m 345.36038,423.7916 -74.33927,-0.53602 c 41.17304,-34.14719 60.68751,-52.09235 83.2171,-2.85808 -2.94078,1.35366 -5.8847,2.49375 -8.87783,3.3941 z m -156.01113,-0.77681 -53.37167,-13.61826 16.19366,-32.47527 60.73358,46.09353 z m -47.35192,-0.29104 -12.60484,-0.24079 3.14911,-6.01138 z m 6.01138,0 c -3.4768,-2.69057 -6.99757,-5.51619 -10.46914,-8.09265 10.62408,2.65812 22.69605,5.31623 34.55654,8.09265 z m 96.83955,-4.94353 c -25.03171,-1.59969 -50.71461,-20.52998 -80.60401,-42.94441 46.49346,0 92.7859,15.13942 139.49292,8.62866 -20.44832,26.09957 -39.42678,35.54169 -58.88891,34.31575 z m 121.70376,-9.1605 c -7.07924,-11.28364 -17.4217,-22.53796 -23.02374,-33.78391 20.81056,-4.16672 37.57375,-12.14211 53.12251,-19.62964 z m -260.18295,-2.90833 -3.39022,-5.71719 C 83.475992,352.79722 59.020708,279.3049 52.714726,228.80386 c 18.083765,62.27882 72.879554,114.34291 77.745614,123.54423 -1.47615,6.66152 -22.24692,40.65377 -24.09127,53.3633 z M 89.651109,377.2123 42.781292,296.61144 c -2.785001,-19.34697 0.126781,-39.05827 5.770276,-64.41767 6.24882,50.13776 20.770669,102.81847 41.099541,145.01853 z m 253.877171,-9.1605 c 26.58115,-39.87695 53.245,-92.82777 79.8272,-132.70473 7.55662,15.12687 10.75076,32.26589 12.55459,49.48658 l -32.47946,57.82211 c -21.13405,8.06019 -43.22603,12.84459 -59.90233,25.39604 z m -42.66174,-2.08231 c -43.46788,0.56429 -89.39704,-5.20107 -130.07907,-11.00411 19.91126,-39.87696 44.0845,-87.59321 70.66669,-127.47016 19.91126,46.53428 55.57229,87.43721 77.73337,137.64826 -6.09409,0.37689 -12.14211,0.69933 -18.32099,0.82601 z m 36.11853,-11.00411 c -26.58219,-46.54266 -53.24605,-99.78033 -79.8272,-146.32718 53.16335,0 106.44918,-0.0408 159.35916,2.3765 -19.67046,50.74602 -46.33432,97.40802 -79.53196,143.95068 z M 131.52819,336.88517 C 123.74962,330.2603 67.404186,256.41203 57.17636,215.95823 62.946636,172.20455 73.248165,138.29919 104.28749,95.563115 79.958989,206.38943 118.76422,305.32281 131.52819,336.88517 Z m 8.86527,-6.784 c -21.0524,-39.87696 -56.762106,-159.11942 -9.69233,-256.493918 13.29581,33.210188 87.22992,113.111708 76.72833,121.412698 -7.20172,9.98651 -44.29389,100.93298 -67.036,135.08122 z M 37.788035,287.93357 c 0,-0.0733 -0.200379,-0.11412 -0.241313,-0.24079 C 27.245297,245.73037 29.568085,203.73132 34.1565,161.82126 l 3.631535,-6.30138 c 0.126781,19.13445 1.308643,38.52748 8.919184,55.49482 -11.119378,27.97564 -8.919184,50.58688 -8.919184,76.91887 z m -7.320232,-12.5546 -11.242077,-19.33545 c -5.643495,-21.38741 -6.416431,-41.63473 -3.643784,-62.04117 0,-0.20939 -0.04083,-0.36433 0,-0.53184 l 12.031345,-20.69749 c -2.253273,33.74309 -1.435424,66.49998 2.854516,102.60595 z m 416.148007,-9.69233 c -2.53144,-19.01196 -6.13387,-37.98308 -9.93312,-57.04844 11.73696,0 28.46664,0.12668 41.10394,1.84467 z M 16.608441,251.29158 15.835504,249.98293 c -1.353555,-6.74317 -2.870847,-13.49472 -4.461633,-20.11226 1.717567,6.86671 3.435239,14.10088 5.23457,21.42091 z m -5.770297,-9.40129 -2.3228402,-4.16777 c 0.2412823,-4.01177 0.4498485,-8.01936 1.014198,-12.07196 0,5.23457 0.4539419,10.76332 1.3086422,16.23973 z m -5.2345698,-9.44317 -2.6172841,-4.71111 c -0.1962964,-3.63489 -0.6052472,-7.36085 -0.7729167,-10.9926 l 4.1672099,-7.3284 c 0.2085662,1.84048 0.335337,3.64431 0.5316334,5.52562 -0.6461449,5.84387 -0.9405894,11.69507 -1.3086425,17.50649 z M 51.700476,204.47149 C 61.637993,134.66326 77.746545,83.585389 108.21342,35.365891 l 14.63585,28.790135 C 87.107422,95.813335 71.612362,125.2536 51.700476,204.47149 Z m -4.751943,-5.76641 c -4.858414,-17.5892 -6.86629,-33.44785 -6.24882,-48.17898 l 27.718724,-47.88794 c -7.725074,31.7351 -12.182625,66.33142 -21.469904,96.06692 z M 408.42858,176.69895 c -48.74746,-4.08506 -98.19321,-1.54943 -159.41779,-1.54943 19.95732,-39.87696 41.42743,-87.597375 59.66572,-128.782866 z m 60.19755,-0.24079 c -48.67312,0.0817 -42.58008,-32.35278 -39.5545,-69.89407 z M 228.60853,158.669 C 218.09856,135.31339 178.02164,82.36259 164.76771,55.821544 204.64362,35.856579 251.17895,35.897513 297.72579,35.897513 269.45911,73.202096 251.30563,122.07202 228.60853,158.669 Z m 180.59267,-3.92593 c -17.91165,-27.39565 -48.2931,-74.997761 -92.141,-118.845557 99.99285,23.923556 112.9526,53.04912 92.141,118.845557 z M 398.44939,52.378244 315.51496,24.414123 338.77529,0.85855478 H 369.1693 Z M 157.40581,35.897513 C 173.64554,22.361229 186.041,8.9925556 199.5776,0.56416278 l 64.12349,0.253563 C 269.13562,3.3082294 274.94704,6.093126 281.2369,9.7246628 l 14.88502,10.7227032 c -44.77547,2.208255 -98.83915,2.167426 -138.71611,15.450147 z M 142.23812,30.957336 128.37907,2.6498252 136.23093,0.56416278 h 47.64296 z M 306.35446,17.576518 279.88638,0.85855478 h 45.32091"
             style="fill:#00305d;fill-opacity:1;fill-rule:nonzero;stroke:none;stroke-width:1.04691"
             id="path22" />
        </g>
      </g>
    </g>
  </g>
</svg>
